<svg xmlns="http://www.w3.org/2000/svg" viewBox="0 0 4000 1083" role="img" aria-labelledby="title desc" xml:space="preserve">
  <title id="title">Heph</title>
  <desc id="desc">The Heph lockup, switching from black in light mode to white in dark mode.</desc>
  <style>
    :root {
      color-scheme: light dark;
    }

    path {
      fill: #000000;
    }

    @media (prefers-color-scheme: dark) {
      path {
        fill: #ffffff;
      }
    }
  </style>
  <g transform="matrix(1,0,0,1,0,0.088249)">
    <g transform="matrix(0.933148,0,0,0.933148,133.703028,-1325.341096)">
      <g transform="matrix(1,0,0,1,-15637.602895,-55859.793359)">
        <path d="M18467.285,58439.5983L18467.285,57482.7586L18618.5134,57482.7586L18618.5134,57612.8456C18618.5134,57584.4342 18687.1459,57470.7176 18794.5669,57470.7176C18964.8179,57470.7176 19073.6847,57612.8456 19073.6847,57835.5885C19073.6847,58058.0236 18964.8179,58200.3844 18794.5669,58200.3844C18687.1459,58200.3844 18618.5134,58086.6764 18618.5134,58058.2564L18618.5134,58439.5983L18467.285,58439.5983ZM18770.4848,57612.8456C18680.8049,57612.8456 18618.5134,57704.2124 18618.5134,57835.5885C18618.5134,57967.2344 18680.8049,58058.2564 18770.4848,58058.2564C18860.1648,58058.2564 18922.4563,57967.2344 18922.4563,57835.551C18922.4563,57704.2124 18860.1648,57612.8456 18770.4848,57612.8456Z" />
      </g>
      <g transform="matrix(1,0,0,1,-15580.761649,-55859.793359)">
        <path d="M16269.9747,57961.2546L16269.9747,57279.9884L16648.2844,57279.9884L16648.2844,58188.3434L16497.0635,58188.3434L16269.9747,57961.2546Z" />
      </g>
      <g transform="matrix(1,0,0,1,-15580.761649,-55859.793359)">
        <path d="M15437.48,57279.9884L16118.7462,57279.9884L16118.7462,57961.2546L15891.6575,58188.3434L15437.48,58188.3434L15437.48,57279.9884Z" />
      </g>
      <g transform="matrix(1,0,0,1,-15641.813228,-55859.793359)">
        <path d="M17481.8435,57805.2299L17147.8445,57805.2299L17147.8445,58188.3434L16996.616,58188.3434L16996.616,57279.9884L17147.8445,57279.9884L17147.8445,57663.1019L17481.8435,57663.1019L17481.8435,57279.9884L17633.072,57279.9884L17633.072,58188.3434L17481.8435,58188.3434L17481.8435,57805.2299Z" />
      </g>
      <g transform="matrix(1,0,0,1,-5667.798102,-31379.07008)">
        <path d="M9355.9084,32799.2651L9355.9084,33132.1223C9355.9084,33103.7109 9424.5409,32989.9943 9531.9619,32989.9943C9702.048,32989.9943 9811.0797,33132.1223 9811.0797,33354.8652L9811.0797,33707.6201L9659.8513,33707.6201L9659.8513,33354.8277C9659.8513,33223.4891 9597.5598,33132.1223 9507.8798,33132.1223C9418.1999,33132.1223 9355.9084,33223.4891 9355.9084,33354.8652C9355.9084,33354.8652 9355.9084,33707.6201 9355.9084,33707.6201L9204.68,33707.6201L9204.6799,32799.2651L9355.9084,32799.2651Z" />
      </g>
      <g transform="matrix(1,0,0,1,-13325.025323,-49246.835856)">
        <path d="M15996.7989,51443.2019C15942.2541,51533.3275 15851.2883,51587.4269 15735.484,51587.4269C15541.382,51587.4269 15417.084,51435.441 15417.084,51216.573C15417.084,50997.705 15541.382,50857.7601 15735.484,50857.7601C15929.586,50857.7601 16053.9074,50997.705 16053.9074,51216.573C16053.9074,51238.986 16052.6037,51260.6976 16050.0548,51281.6165L15568.3125,51281.6165C15568.3125,51376.9605 15636.932,51443.2019 15735.484,51443.2019C15802.7572,51443.2019 15856.0937,51412.3358 15883.1735,51362.4165L16032.8688,51362.4165C16023.6697,51391.7476 16011.5698,51418.7957 15996.7989,51443.2019ZM15735.484,50999.8881C15636.954,50999.8881 15568.3125,51062.0855 15568.3125,51151.5295L15902.6789,51151.5295C15902.6789,51062.0855 15834.014,50999.8881 15735.484,50999.8881Z" />
      </g>
    </g>
  </g>
</svg>
